Coordinates
version=1
nRows=5
nColumns=42
inDegrees=yes

Units are S.I. units (second, meters, Newtons, ...)
If the header above contains a line with 'inDegrees', this indicates whether rotational values are in degrees (yes) or radians (no).

endheader
time	pelvis_tilt	pelvis_list	pelvis_rotation	pelvis_tx	pelvis_ty	pelvis_tz	hip_flexion_r	hip_adduction_r	hip_rotation_r	knee_angle_r	knee_adduction_r	knee_angle_r_beta	ankle_angle_r	subtalar_angle_r	mtp_angle_r	hip_flexion_l	hip_adduction_l	hip_rotation_l	knee_angle_l	knee_adduction_l	knee_angle_l_beta	ankle_angle_l	subtalar_angle_l	mtp_angle_l	lumbar_extension	lumbar_bending	lumbar_rotation	arm_flex_r	arm_add_r	arm_rot_r	elbow_flex_r	pro_sup_r	wrist_flex_r	wrist_dev_r	arm_flex_l	arm_add_l	arm_rot_l	elbow_flex_l	pro_sup_l	wrist_flex_l	wrist_dev_l
      2.90000000	      8.65700861	      7.16134529	     20.68961030	      0.67051251	      0.90675152	      0.50852153	     -7.63357587	      0.18252306	    -21.35195778	     17.99588871	      3.35427020	      0.31408751	     19.13478463	     -1.41414487	     -7.53373216	     21.51107848	     -7.74968534	      2.66076159	     24.79522541	      5.04468249	      0.43275832	      6.89550825	      7.45598763	     -7.53373216	    -23.87899707	     -8.04003475	     -3.73922095	     -9.99256605	    -26.33933551	    -50.04511141	     62.62268487	     90.00000001	      0.00000000	      0.00000000	      4.28327986	    -20.38407259	     13.59049993	     82.93711859	     90.00000001	      0.00000000	      0.00000000
      2.91000000	      9.09579830	      7.33478166	     20.27270342	      0.67326058	      0.90686733	      0.50843540	     -8.42677849	      0.11639720	    -21.20930336	     17.83244438	      3.46984465	      0.31123487	     19.62906792	     -1.26301538	     -7.53299037	     21.99683674	     -7.40454169	      2.39526714	     25.26131807	      4.98937444	      0.44089317	      6.89658396	      7.52530147	     -7.53299037	    -24.14952759	     -8.12256703	     -3.50595966	     -9.99383749	    -26.47368780	    -49.01702531	     63.87017185	     90.00000001	      0.00000000	      0.00000000	      3.79449486	    -20.30147481	     13.24000500	     83.21456021	     90.00000001	      0.00000000	      0.00000000
      2.92000000	      9.46381021	      7.44511551	     19.76043060	      0.67601152	      0.90684458	      0.50849342	     -9.00457495	      0.06197212	    -21.05515442	     17.86713095	      3.49152221	      0.31184026	     19.84088550	     -1.03045377	     -7.53224205	     22.45109758	     -7.12624386	      2.33165527	     25.56927599	      5.03285421	      0.44626805	      6.93674125	      7.68177553	     -7.53224205	    -24.29830465	     -8.21146286	     -3.12217093	     -9.89401755	    -26.64386580	    -48.12013562	     64.75433513	     90.00000001	      0.00000000	      0.00000000	      3.37662393	    -20.23289621	     13.01802920	     83.36644905	     90.00000001	      0.00000000	      0.00000000
      2.93000000	      9.67983136	      7.45521998	     19.22320905	      0.67870298	      0.90664269	      0.50855440	     -9.25391763	      0.02905419	    -20.91060717	     18.14204372	      3.43464237	      0.31663840	     19.75816521	     -0.88405954	     -7.53185709	     23.00613004	     -6.86090478	      2.48332273	     25.75675971	      5.08320075	      0.44954026	      6.86883653	      7.76325065	     -7.53185709	    -24.24179311	     -8.28735282	     -2.60121165	     -9.58103679	    -26.69864419	    -47.78671484	     65.04454968	     90.00000001	      0.00000000	      0.00000000	      3.04370946	    -20.10772347	     13.05310030	     83.31164186	     90.00000001	      0.00000000	      0.00000000
      2.94000000	     10.11393598	      7.57129501	     18.71228991	      0.68143516	      0.90655253	      0.50854195	     -9.90320885	     -0.00437267	    -20.66843666	     18.16832768	      3.45491057	      0.31709714	     20.32138184	     -0.72595280	     -7.53118772	     23.39254538	     -6.60558546	      2.54109478	     26.23555016	      5.23309669	      0.45789673	      6.94715551	      7.72332114	     -7.53118772	    -24.49498691	     -8.31509845	     -2.34735409	     -9.64184545	    -26.81372400	    -46.59988149	     66.48975768	     90.00000001	      0.00000000	      0.00000000	      2.47749915	    -20.09647308	     12.78579367	     83.61171166	     90.00000001	      0.00000000	      0.00000000
